<svg width="110" height="80" viewBox="0 0 207 107" fill="none" xmlns="http://www.w3.org/2000/svg">
<path d="M91.4496 94.5439H75.7148V69.1114H79.0804V91.5253H91.4496V94.5439Z" fill="#F40F0F"/>
<path d="M173.417 87.1535C173.417 89.536 172.607 91.3634 170.988 92.6356C169.369 93.9078 167.016 94.5439 163.928 94.5439H154.403V69.1114H163.459C166.165 69.1114 168.293 69.6897 169.843 70.8463C171.393 72.0028 172.168 73.5873 172.168 75.5997C172.168 78.0515 170.948 79.8673 168.507 81.047C170.15 81.4633 171.376 82.2324 172.185 83.3543C173.006 84.4646 173.417 85.731 173.417 87.1535ZM157.769 79.7632H163.424C165.286 79.7632 166.657 79.4683 167.536 78.8785C168.415 78.2771 168.854 77.2824 168.854 75.8946C168.854 74.6455 168.426 73.7087 167.571 73.0842C166.715 72.4481 165.229 72.13 163.112 72.13H157.769V79.7632ZM157.769 91.5253H163.893C167.918 91.5253 169.93 90.068 169.93 87.1535C169.93 85.6385 169.462 84.534 168.525 83.84C167.6 83.1345 165.911 82.7818 163.459 82.7818H157.769V91.5253Z" fill="#F40F0F"/>
<path d="M189.649 94.9776C186.063 94.9776 183.38 94.1738 181.599 92.5662C179.83 90.9586 178.899 88.8941 178.806 86.3729H182.05C182.224 88.2696 183.01 89.6748 184.409 90.5885C185.82 91.4906 187.521 91.9416 189.51 91.9416C191.395 91.9416 192.91 91.5542 194.055 90.7793C195.212 90.0044 195.79 88.952 195.79 87.6219C195.79 86.2225 195.194 85.2048 194.003 84.5687C192.812 83.9326 190.759 83.308 187.844 82.6951C184.941 82.0705 182.854 81.2089 181.582 80.1102C180.321 79.0115 179.691 77.5484 179.691 75.7211C179.691 73.6624 180.512 71.9739 182.154 70.6554C183.808 69.337 186 68.6777 188.729 68.6777C191.597 68.6777 193.911 69.3427 195.668 70.6728C197.426 72.0028 198.357 73.8822 198.462 76.3109H195.183C194.847 73.2345 192.742 71.6963 188.868 71.6963C186.994 71.6963 185.543 72.0491 184.514 72.7546C183.484 73.46 182.97 74.3968 182.97 75.565C182.97 76.629 183.38 77.427 184.201 77.959C185.034 78.491 186.578 79.0057 188.833 79.503C191.1 80.0003 192.899 80.4918 194.229 80.9776C195.559 81.4633 196.698 82.2209 197.646 83.2502C198.595 84.268 199.069 85.6385 199.069 87.3617C199.069 89.5476 198.196 91.3634 196.449 92.809C194.714 94.2547 192.447 94.9776 189.649 94.9776Z" fill="#F40F0F"/>
<path d="M115.73 28.8945H117.825V50.0304C117.825 50.7615 117.625 51.4786 117.246 52.1038L94.6069 89.4536C93.8519 90.6992 93.9877 92.2898 94.9429 93.3894C95.5796 94.1223 96.5027 94.5432 97.4735 94.5432H147.784C148.7 94.5432 149.582 94.1901 150.245 93.5573C151.472 92.3861 151.704 90.5123 150.799 89.0774L127.503 52.1256C127.1 51.4869 126.887 50.7473 126.887 49.9924V28.8945H129.505V24.6895H123.758V50.0335C123.758 50.7626 123.957 51.4779 124.334 52.102L147.248 90.0269C147.65 90.6934 147.17 91.544 146.392 91.544H98.7456C97.9712 91.544 97.4907 90.7017 97.8848 90.0351L120.319 52.0897C120.683 51.4732 120.876 50.7702 120.876 50.054V24.6895H115.73V28.8945Z" fill="white"/>
<path d="M142.307 86.6479L125.185 58.1008C124.629 57.1731 123.626 56.6055 122.544 56.6055C121.463 56.6055 120.46 57.1731 119.904 58.1008L102.956 86.3579C102.589 86.97 102.537 87.7211 102.818 88.3772C103.169 89.1953 103.973 89.7258 104.863 89.7258H140.564C141.525 89.7258 142.354 89.0533 142.553 88.1135C142.659 87.6115 142.571 87.0879 142.307 86.6479Z" fill="#F40F0F"/>
<circle cx="124.045" cy="17.0608" r="3.4124" fill="#F40F0F"/>
<circle cx="129.508" cy="11.6021" r="2.04744" fill="#F40F0F"/>
<circle cx="115.177" cy="6.82394" r="1.36496" fill="#F40F0F"/>
<circle cx="121.315" cy="8.87193" r="0.682479" fill="#F40F0F"/>
<circle cx="121.315" cy="0.682479" r="0.682479" fill="#F40F0F"/>
<circle cx="124.05" cy="6.14146" r="0.682479" fill="#F40F0F"/>
<circle cx="116.208" cy="13.5728" r="2.04744" fill="#F40F0F"/>
<path d="M9.87141 32.6688H0V25.8086H27.6445V32.6688H17.7504V58.5472H9.87141V32.6688Z" fill="white"/>
<path d="M51.497 59.068C46.9991 59.068 43.4746 57.8303 40.9238 55.3549C38.3578 52.8946 37.0748 49.2796 37.0748 44.5099V25.8086H44.9538V44.3062C44.9538 47.008 45.5425 48.9928 46.7198 50.2607C47.9273 51.5588 49.5499 52.2078 51.5876 52.2078C53.6253 52.2078 55.2479 51.589 56.4554 50.3513C57.6327 49.0834 58.2214 47.1514 58.2214 44.5552V25.8086H66.1004V44.2609C66.1004 46.7212 65.7608 48.8721 65.0815 50.7135C64.4174 52.5248 63.459 54.0568 62.2062 55.3096C60.9383 56.5473 59.3911 57.4907 57.5648 58.1397C55.7384 58.7586 53.7158 59.068 51.497 59.068Z" fill="white"/>
<path d="M105.145 58.5925H98.4206L83.2965 38.7592V58.5925H75.5081V25.8086H82.6852L97.3112 45.008V25.8086H105.145V58.5925Z" fill="white"/>
<path d="M152.216 58.5472C147.447 58.5472 143.507 56.9548 140.398 53.77C137.303 50.6154 135.756 46.7665 135.756 42.2232C135.756 37.7252 137.303 33.8763 140.398 30.6764C143.462 27.4312 147.492 25.8086 152.488 25.8086C155.507 25.8086 158.027 26.2765 160.05 27.2123C162.042 28.1029 163.755 29.2877 165.189 30.7669L160.48 36.246C158.095 33.7102 155.416 32.4424 152.443 32.4424C149.937 32.4424 147.854 33.3857 146.194 35.2725C144.518 37.1139 143.681 39.4006 143.681 42.1326C143.681 44.8646 144.518 47.1815 146.194 49.0834C147.809 50.9701 149.892 51.9135 152.443 51.9135C155.839 51.9135 158.578 50.6003 160.661 47.974L165.438 52.7965C163.838 54.5926 162.012 56.0039 159.959 57.0303C157.907 58.0416 155.326 58.5472 152.216 58.5472Z" fill="white"/>
<path d="M206.24 58.7284H198.044L188.58 35.4536L181.765 52.2078L188.943 46.1859V52.7065L181.765 58.7284H171.102L185.048 25.8539H192.248L206.24 58.7284Z" fill="white"/>
<path d="M122.805 72.8185C118.629 67.352 111.734 71.5261 109.9 74.6718L101.168 89.7265H143.923L134.288 73.1663C132.264 76.312 126.982 78.2849 122.805 72.8185Z" fill="#D00A0A"/>
<path d="M77.2932 100.03L78.2304 104.389L80.6856 100.03H81.5935L80.6636 105.382H79.9762L80.3438 103.265L80.7812 101.111L78.3554 105.382H77.8261L76.8705 101.026L76.5397 103.335L76.1832 105.382H75.4922L76.4221 100.03H77.2932Z" fill="white"/>
<path d="M84.4959 105.382C84.4787 105.311 84.4702 105.241 84.4702 105.172L84.4812 104.963C84.1161 105.301 83.7289 105.465 83.3197 105.455C82.9693 105.45 82.6839 105.34 82.4634 105.125C82.2453 104.906 82.146 104.634 82.1656 104.309C82.1902 103.887 82.3739 103.559 82.717 103.324C83.0625 103.086 83.5158 102.967 84.0769 102.967L84.7716 102.971L84.8157 102.655C84.8402 102.417 84.7936 102.23 84.676 102.092C84.5608 101.953 84.3869 101.88 84.1541 101.875C83.9262 101.871 83.724 101.927 83.5476 102.045C83.3736 102.16 83.2671 102.313 83.2279 102.504L82.5589 102.508C82.581 102.275 82.6716 102.069 82.8309 101.89C82.9902 101.709 83.1948 101.569 83.4447 101.471C83.6946 101.371 83.9531 101.323 84.2202 101.328C84.6343 101.338 84.9565 101.464 85.1869 101.706C85.4172 101.947 85.514 102.266 85.4772 102.666L85.1538 104.636L85.1354 104.919C85.1305 105.053 85.1452 105.187 85.1795 105.319L85.1722 105.382H84.4959ZM83.4521 104.867C83.6652 104.872 83.8662 104.822 84.0548 104.717C84.246 104.609 84.4101 104.461 84.5473 104.272L84.6907 103.452L84.1872 103.449C83.7681 103.449 83.4472 103.515 83.2242 103.647C83.0012 103.779 82.875 103.967 82.8456 104.209C82.8236 104.396 82.8664 104.551 82.9742 104.676C83.0845 104.799 83.2438 104.862 83.4521 104.867Z" fill="white"/>
<path d="M88.8134 102.011L88.501 101.978C88.0746 101.978 87.7389 102.171 87.4939 102.555L87.0051 105.382H86.3398L87.0308 101.405L87.674 101.401L87.5748 101.864C87.8565 101.494 88.1886 101.314 88.5708 101.324C88.6517 101.324 88.757 101.343 88.8869 101.379L88.8134 102.011Z" fill="white"/>
<path d="M90.536 103.548L90.0141 104.015L89.7789 105.382H89.1136L90.0949 99.7363H90.7602L90.1721 103.11L90.5801 102.699L91.9915 101.405H92.8552L91.0285 103.099L92.2855 105.382H91.5578L90.536 103.548Z" fill="white"/>
<path d="M94.7616 105.455C94.2666 105.446 93.8795 105.263 93.6002 104.908C93.3208 104.552 93.2032 104.098 93.2473 103.544L93.2657 103.386C93.3073 102.992 93.4237 102.631 93.6149 102.305C93.8084 101.98 94.0437 101.735 94.3205 101.57C94.5974 101.404 94.8964 101.324 95.2174 101.331C95.6266 101.341 95.9475 101.477 96.1803 101.739C96.4131 102.002 96.5405 102.357 96.5626 102.805C96.5699 102.965 96.565 103.124 96.5479 103.283L96.5074 103.588H93.9089C93.8648 103.948 93.9236 104.255 94.0853 104.507C94.2495 104.759 94.4933 104.891 94.8167 104.9C95.2088 104.91 95.5714 104.734 95.9047 104.371L96.2869 104.695C96.1203 104.935 95.9047 105.123 95.64 105.261C95.3779 105.395 95.085 105.46 94.7616 105.455ZM95.1843 101.886C94.9098 101.879 94.6697 101.972 94.4639 102.166C94.2605 102.359 94.0988 102.647 93.9787 103.03L95.912 103.033L95.9267 102.974C95.9659 102.666 95.9157 102.41 95.776 102.206C95.6388 102 95.4416 101.894 95.1843 101.886Z" fill="white"/>
<path d="M98.9652 100.442L98.7961 101.405H99.5201L99.4283 101.931H98.7079L98.2925 104.404C98.2852 104.468 98.284 104.527 98.2889 104.581C98.306 104.772 98.4102 104.867 98.6013 104.867C98.6821 104.867 98.79 104.855 98.9247 104.831L98.8733 105.386C98.714 105.43 98.5523 105.452 98.3881 105.452C98.1235 105.447 97.925 105.35 97.7927 105.161C97.6604 104.97 97.6089 104.714 97.6383 104.393L98.0426 101.931H97.3406L97.4325 101.405H98.1345L98.3036 100.442H98.9652Z" fill="white"/>
<path d="M100.618 105.382H99.9563L100.647 101.405H101.309L100.618 105.382ZM101.166 99.9532C101.278 99.9483 101.371 99.9826 101.445 100.056C101.521 100.127 101.559 100.221 101.559 100.339C101.556 100.454 101.518 100.549 101.445 100.622C101.374 100.696 101.281 100.735 101.166 100.74C101.05 100.745 100.956 100.712 100.883 100.64C100.809 100.569 100.774 100.476 100.776 100.361C100.778 100.246 100.815 100.15 100.886 100.074C100.957 99.9985 101.05 99.9581 101.166 99.9532Z" fill="white"/>
<path d="M103.289 101.401L103.193 101.905C103.551 101.513 103.958 101.322 104.414 101.331C104.788 101.341 105.065 101.471 105.244 101.721C105.423 101.971 105.489 102.323 105.443 102.776L105.009 105.382H104.344L104.781 102.765C104.796 102.645 104.797 102.533 104.785 102.43C104.743 102.087 104.541 101.912 104.178 101.905C103.779 101.897 103.428 102.111 103.127 102.544L102.635 105.382H101.969L102.66 101.405L103.289 101.401Z" fill="white"/>
<path d="M106.493 103.386C106.551 102.952 106.668 102.576 106.842 102.258C107.018 101.937 107.231 101.7 107.481 101.548C107.734 101.394 108.009 101.32 108.308 101.328C108.769 101.338 109.117 101.512 109.352 101.85L109.484 101.405H110.095L109.433 105.297C109.362 105.805 109.156 106.21 108.816 106.514C108.475 106.82 108.055 106.966 107.555 106.951C107.285 106.946 107.027 106.883 106.779 106.76C106.534 106.638 106.341 106.47 106.199 106.257L106.577 105.849C106.817 106.204 107.135 106.386 107.529 106.396C107.845 106.406 108.112 106.318 108.33 106.132C108.551 105.945 108.697 105.681 108.768 105.338L108.841 104.985C108.518 105.308 108.139 105.465 107.706 105.455C107.458 105.448 107.242 105.382 107.059 105.257C106.877 105.129 106.736 104.947 106.636 104.709C106.536 104.469 106.48 104.202 106.471 103.908C106.466 103.763 106.473 103.589 106.493 103.386ZM107.136 103.765C107.128 104.115 107.189 104.387 107.316 104.581C107.446 104.772 107.641 104.872 107.9 104.882C108.297 104.892 108.639 104.697 108.926 104.298L109.238 102.471C109.091 102.108 108.825 101.92 108.441 101.905C108.08 101.895 107.784 102.042 107.551 102.346C107.321 102.65 107.185 103.06 107.143 103.577L107.136 103.765Z" fill="white"/>
<path d="M120.292 103.287L119.928 105.382H119.237L120.167 100.03L121.953 100.034C122.504 100.034 122.93 100.181 123.228 100.475C123.527 100.767 123.656 101.155 123.614 101.64C123.57 102.152 123.366 102.555 123.001 102.849C122.638 103.143 122.159 103.29 121.564 103.29L120.292 103.287ZM120.391 102.71L121.582 102.713C121.957 102.713 122.264 102.619 122.504 102.43C122.745 102.242 122.885 101.98 122.927 101.644C122.966 101.343 122.904 101.099 122.74 100.912C122.575 100.724 122.337 100.625 122.023 100.615L120.755 100.611L120.391 102.71Z" fill="white"/>
<path d="M126.517 102.011L126.204 101.978C125.778 101.978 125.442 102.171 125.197 102.555L124.709 105.382H124.043L124.734 101.405L125.377 101.401L125.278 101.864C125.56 101.494 125.892 101.314 126.274 101.324C126.355 101.324 126.46 101.343 126.59 101.379L126.517 102.011Z" fill="white"/>
<path d="M128.949 101.331C129.282 101.336 129.568 101.427 129.805 101.603C130.043 101.78 130.218 102.024 130.331 102.335C130.446 102.644 130.485 102.982 130.448 103.349L130.441 103.43C130.395 103.817 130.279 104.168 130.096 104.481C129.912 104.793 129.674 105.035 129.383 105.209C129.091 105.383 128.771 105.465 128.423 105.455C128.092 105.45 127.807 105.36 127.567 105.183C127.329 105.007 127.155 104.767 127.045 104.463C126.935 104.159 126.895 103.825 126.927 103.46C126.964 103.048 127.076 102.678 127.262 102.35C127.448 102.021 127.687 101.768 127.979 101.589C128.273 101.407 128.596 101.322 128.949 101.331ZM127.596 103.463C127.579 103.618 127.579 103.778 127.596 103.945C127.621 104.234 127.707 104.464 127.854 104.636C128.003 104.807 128.201 104.897 128.449 104.904C128.669 104.911 128.873 104.857 129.059 104.742C129.245 104.625 129.402 104.448 129.53 104.213C129.657 103.978 129.739 103.717 129.776 103.43C129.795 103.205 129.799 103.015 129.787 102.86C129.757 102.564 129.668 102.33 129.519 102.158C129.369 101.987 129.171 101.896 128.923 101.886C128.58 101.879 128.288 102.014 128.048 102.291C127.808 102.568 127.66 102.93 127.604 103.379L127.596 103.463Z" fill="white"/>
<path d="M131.399 103.386C131.448 102.982 131.56 102.617 131.734 102.291C131.908 101.965 132.122 101.721 132.377 101.559C132.632 101.398 132.912 101.32 133.219 101.328C133.662 101.338 134.003 101.499 134.24 101.813L134.623 99.7363H135.288L134.31 105.382H133.704L133.774 104.955C133.46 105.299 133.073 105.465 132.612 105.455C132.245 105.446 131.952 105.302 131.734 105.025C131.516 104.746 131.398 104.372 131.381 103.904C131.373 103.76 131.38 103.587 131.399 103.386ZM132.039 103.768C132.031 104.119 132.094 104.391 132.226 104.584C132.358 104.778 132.552 104.877 132.807 104.882C133.192 104.899 133.533 104.706 133.832 104.301L134.148 102.464C134.001 102.101 133.734 101.915 133.347 101.905C133.085 101.897 132.853 101.977 132.653 102.144C132.454 102.308 132.302 102.539 132.197 102.838C132.094 103.135 132.041 103.445 132.039 103.768Z" fill="white"/>
<path d="M138.15 104.989C137.839 105.31 137.443 105.465 136.963 105.455C136.583 105.446 136.301 105.31 136.117 105.047C135.936 104.785 135.869 104.427 135.915 103.974L136.341 101.405H137.007L136.577 103.985C136.564 104.093 136.562 104.198 136.569 104.301C136.582 104.478 136.634 104.616 136.727 104.717C136.821 104.817 136.95 104.871 137.117 104.878C137.592 104.893 137.96 104.701 138.22 104.301L138.72 101.405H139.385L138.694 105.382H138.065L138.15 104.989Z" fill="white"/>
<path d="M141.633 104.904C141.871 104.909 142.085 104.84 142.276 104.698C142.467 104.554 142.592 104.365 142.651 104.132L143.28 104.129C143.243 104.378 143.142 104.606 142.978 104.812C142.816 105.018 142.612 105.178 142.364 105.294C142.117 105.409 141.863 105.463 141.604 105.455C141.273 105.45 140.992 105.365 140.762 105.198C140.534 105.029 140.366 104.795 140.258 104.496C140.151 104.195 140.114 103.857 140.148 103.482L140.166 103.298C140.213 102.916 140.325 102.574 140.501 102.272C140.677 101.971 140.908 101.737 141.192 101.57C141.476 101.401 141.79 101.322 142.133 101.331C142.549 101.341 142.883 101.481 143.133 101.75C143.383 102.02 143.507 102.362 143.507 102.776L142.886 102.772C142.881 102.513 142.809 102.303 142.669 102.144C142.53 101.982 142.341 101.896 142.103 101.886C141.758 101.879 141.47 102.008 141.24 102.272C141.012 102.537 140.87 102.907 140.813 103.382L140.802 103.478C140.788 103.635 140.785 103.796 140.795 103.963C140.812 104.25 140.893 104.476 141.038 104.643C141.182 104.81 141.381 104.897 141.633 104.904Z" fill="white"/>
<path d="M145.833 100.442L145.664 101.405H146.388L146.296 101.931H145.576L145.16 104.404C145.153 104.468 145.152 104.527 145.157 104.581C145.174 104.772 145.278 104.867 145.469 104.867C145.55 104.867 145.658 104.855 145.792 104.831L145.741 105.386C145.582 105.43 145.42 105.452 145.256 105.452C144.991 105.447 144.793 105.35 144.66 105.161C144.528 104.97 144.477 104.714 144.506 104.393L144.91 101.931H144.208L144.3 101.405H145.002L145.171 100.442H145.833Z" fill="white"/>
<path d="M149.228 104.305C149.265 104.03 149.114 103.837 148.776 103.724L148.085 103.522C147.502 103.321 147.22 102.988 147.239 102.522C147.257 102.172 147.416 101.885 147.717 101.662C148.021 101.437 148.378 101.327 148.787 101.331C149.189 101.336 149.515 101.454 149.764 101.684C150.017 101.912 150.138 102.21 150.128 102.577L149.467 102.574C149.472 102.375 149.409 102.214 149.279 102.089C149.149 101.964 148.977 101.899 148.761 101.894C148.531 101.889 148.332 101.945 148.166 102.063C148.011 102.173 147.922 102.318 147.897 102.497C147.865 102.727 148.006 102.895 148.32 103L148.654 103.092C149.11 103.21 149.434 103.363 149.625 103.551C149.816 103.74 149.904 103.974 149.889 104.253C149.875 104.501 149.794 104.717 149.647 104.9C149.5 105.084 149.304 105.225 149.059 105.323C148.814 105.419 148.553 105.463 148.276 105.455C147.854 105.45 147.506 105.328 147.232 105.088C146.958 104.845 146.825 104.534 146.835 104.154L147.5 104.158C147.5 104.381 147.571 104.56 147.714 104.695C147.856 104.829 148.05 104.897 148.298 104.897C148.541 104.902 148.75 104.851 148.926 104.746C149.103 104.638 149.203 104.491 149.228 104.305Z" fill="white"/>
<path d="M161.529 100.611H159.864L159.037 105.382H158.349L159.176 100.611H157.511L157.614 100.03H161.631L161.529 100.611Z" fill="white"/>
<path d="M163.02 105.455C162.525 105.446 162.138 105.263 161.858 104.908C161.579 104.552 161.461 104.098 161.505 103.544L161.524 103.386C161.565 102.992 161.682 102.631 161.873 102.305C162.066 101.98 162.302 101.735 162.579 101.57C162.855 101.404 163.154 101.324 163.475 101.331C163.885 101.341 164.206 101.477 164.438 101.739C164.671 102.002 164.799 102.357 164.821 102.805C164.828 102.965 164.823 103.124 164.806 103.283L164.765 103.588H162.167C162.123 103.948 162.182 104.255 162.343 104.507C162.507 104.759 162.751 104.891 163.075 104.9C163.467 104.91 163.829 104.734 164.163 104.371L164.545 104.695C164.378 104.935 164.163 105.123 163.898 105.261C163.636 105.395 163.343 105.46 163.02 105.455ZM163.442 101.886C163.168 101.879 162.928 101.972 162.722 102.166C162.519 102.359 162.357 102.647 162.237 103.03L164.17 103.033L164.185 102.974C164.224 102.666 164.174 102.41 164.034 102.206C163.897 102 163.7 101.894 163.442 101.886Z" fill="white"/>
<path d="M167.146 104.904C167.384 104.909 167.598 104.84 167.789 104.698C167.98 104.554 168.105 104.365 168.164 104.132L168.793 104.129C168.756 104.378 168.655 104.606 168.491 104.812C168.329 105.018 168.125 105.178 167.877 105.294C167.63 105.409 167.376 105.463 167.117 105.455C166.786 105.45 166.505 105.365 166.275 105.198C166.047 105.029 165.879 104.795 165.771 104.496C165.664 104.195 165.627 103.857 165.661 103.482L165.679 103.298C165.726 102.916 165.838 102.574 166.014 102.272C166.19 101.971 166.421 101.737 166.705 101.57C166.989 101.401 167.303 101.322 167.646 101.331C168.062 101.341 168.396 101.481 168.646 101.75C168.896 102.02 169.02 102.362 169.02 102.776L168.399 102.772C168.394 102.513 168.322 102.303 168.182 102.144C168.043 101.982 167.854 101.896 167.616 101.886C167.271 101.879 166.983 102.008 166.753 102.272C166.525 102.537 166.383 102.907 166.326 103.382L166.315 103.478C166.301 103.635 166.298 103.796 166.308 103.963C166.325 104.25 166.406 104.476 166.551 104.643C166.695 104.81 166.894 104.897 167.146 104.904Z" fill="white"/>
<path d="M170.831 101.89C171.179 101.51 171.58 101.325 172.033 101.335C172.406 101.34 172.681 101.469 172.86 101.721C173.041 101.971 173.109 102.323 173.062 102.776L172.629 105.382H171.963L172.401 102.765C172.415 102.645 172.417 102.533 172.404 102.43C172.363 102.087 172.161 101.912 171.798 101.905C171.391 101.895 171.041 102.108 170.747 102.544L170.254 105.382H169.589L170.57 99.7363H171.236L170.831 101.89Z" fill="white"/>
<path d="M175.23 101.401L175.134 101.905C175.492 101.513 175.899 101.322 176.354 101.331C176.729 101.341 177.006 101.471 177.185 101.721C177.364 101.971 177.43 102.323 177.383 102.776L176.95 105.382H176.285L176.722 102.765C176.737 102.645 176.738 102.533 176.726 102.43C176.684 102.087 176.482 101.912 176.119 101.905C175.72 101.897 175.369 102.111 175.068 102.544L174.575 105.382H173.91L174.601 101.405L175.23 101.401Z" fill="white"/>
<path d="M180.448 101.331C180.781 101.336 181.066 101.427 181.304 101.603C181.542 101.78 181.717 102.024 181.83 102.335C181.945 102.644 181.984 102.982 181.947 103.349L181.94 103.43C181.893 103.817 181.778 104.168 181.594 104.481C181.411 104.793 181.173 105.035 180.881 105.209C180.59 105.383 180.27 105.465 179.922 105.455C179.591 105.45 179.306 105.36 179.066 105.183C178.828 105.007 178.654 104.767 178.544 104.463C178.433 104.159 178.394 103.825 178.426 103.46C178.463 103.048 178.574 102.678 178.761 102.35C178.947 102.021 179.186 101.768 179.477 101.589C179.771 101.407 180.095 101.322 180.448 101.331ZM179.095 103.463C179.078 103.618 179.078 103.778 179.095 103.945C179.12 104.234 179.205 104.464 179.352 104.636C179.502 104.807 179.7 104.897 179.948 104.904C180.168 104.911 180.372 104.857 180.558 104.742C180.744 104.625 180.901 104.448 181.028 104.213C181.156 103.978 181.238 103.717 181.275 103.43C181.294 103.205 181.298 103.015 181.286 102.86C181.256 102.564 181.167 102.33 181.017 102.158C180.868 101.987 180.669 101.896 180.422 101.886C180.079 101.879 179.787 102.014 179.547 102.291C179.307 102.568 179.159 102.93 179.102 103.379L179.095 103.463Z" fill="white"/>
<path d="M183.427 105.382H182.766L183.743 99.7363H184.409L183.427 105.382Z" fill="white"/>
<path d="M186.988 101.331C187.321 101.336 187.606 101.427 187.844 101.603C188.082 101.78 188.257 102.024 188.37 102.335C188.485 102.644 188.524 102.982 188.487 103.349L188.48 103.43C188.433 103.817 188.318 104.168 188.134 104.481C187.951 104.793 187.713 105.035 187.421 105.209C187.13 105.383 186.81 105.465 186.462 105.455C186.131 105.45 185.846 105.36 185.606 105.183C185.368 105.007 185.194 104.767 185.084 104.463C184.973 104.159 184.934 103.825 184.966 103.46C185.003 103.048 185.114 102.678 185.301 102.35C185.487 102.021 185.726 101.768 186.017 101.589C186.311 101.407 186.635 101.322 186.988 101.331ZM185.635 103.463C185.618 103.618 185.618 103.778 185.635 103.945C185.66 104.234 185.745 104.464 185.892 104.636C186.042 104.807 186.24 104.897 186.488 104.904C186.708 104.911 186.912 104.857 187.098 104.742C187.284 104.625 187.441 104.448 187.568 104.213C187.696 103.978 187.778 103.717 187.815 103.43C187.834 103.205 187.838 103.015 187.826 102.86C187.796 102.564 187.707 102.33 187.557 102.158C187.408 101.987 187.209 101.896 186.962 101.886C186.619 101.879 186.327 102.014 186.087 102.291C185.847 102.568 185.699 102.93 185.642 103.379L185.635 103.463Z" fill="white"/>
<path d="M189.442 103.386C189.5 102.952 189.617 102.576 189.791 102.258C189.967 101.937 190.18 101.7 190.43 101.548C190.683 101.394 190.958 101.32 191.257 101.328C191.718 101.338 192.066 101.512 192.301 101.85L192.433 101.405H193.044L192.382 105.297C192.311 105.805 192.105 106.21 191.765 106.514C191.424 106.82 191.004 106.966 190.504 106.951C190.234 106.946 189.976 106.883 189.728 106.76C189.483 106.638 189.29 106.47 189.148 106.257L189.526 105.849C189.766 106.204 190.084 106.386 190.478 106.396C190.794 106.406 191.061 106.318 191.279 106.132C191.5 105.945 191.646 105.681 191.717 105.338L191.79 104.985C191.467 105.308 191.088 105.465 190.655 105.455C190.407 105.448 190.191 105.382 190.008 105.257C189.826 105.129 189.685 104.947 189.585 104.709C189.484 104.469 189.429 104.202 189.42 103.908C189.415 103.763 189.422 103.589 189.442 103.386ZM190.085 103.765C190.077 104.115 190.138 104.387 190.265 104.581C190.395 104.772 190.59 104.872 190.849 104.882C191.246 104.892 191.588 104.697 191.875 104.298L192.187 102.471C192.04 102.108 191.774 101.92 191.39 101.905C191.029 101.895 190.733 102.042 190.5 102.346C190.27 102.65 190.134 103.06 190.092 103.577L190.085 103.765Z" fill="white"/>
<path d="M195.075 104.378L196.49 101.405H197.225L194.865 106.043C194.537 106.688 194.116 107.006 193.601 106.999C193.51 106.997 193.377 106.975 193.2 106.933L193.259 106.382L193.432 106.4C193.643 106.41 193.824 106.362 193.976 106.257C194.13 106.154 194.266 105.986 194.384 105.753L194.623 105.297L193.936 101.405H194.63L195.075 104.378Z" fill="white"/>
<circle cx="114.415" cy="102.974" r="1.20438" fill="#F40F0F"/>
<circle cx="154.161" cy="102.974" r="1.20438" fill="#F40F0F"/>
</svg>
